<mxfile host="app.diagrams.net" modified="2023-07-04T02:56:58.892Z" agent="Mozilla/5.0 (Macintosh; Intel Mac OS X 10_15_7) AppleWebKit/605.1.15 (KHTML, like Gecko) Version/14.1.1 Safari/605.1.15" version="21.5.2" etag="xWbJE6SbbCxIagiTSo_x" type="github">
  <diagram name="第 1 页" id="lzQ1DLNY_wVtoXrVYpb8">
    <mxGraphModel>
      <root>
        <mxCell id="0" />
        <mxCell id="1" parent="0" />
      </root>
    </mxGraphModel>
  </diagram>
</mxfile>
